<mxfile host="app.diagrams.net" modified="2021-07-07T13:42:36.347Z" agent="5.0 (Macintosh)" etag="Caq2j5IR8RJvuox15_MR" version="14.8.4" type="github">
  <diagram id="z9LirXSFw3qa1OCAbRFV" name="Page-1">
    <mxGraphModel dx="1186" dy="651" grid="1" gridSize="10" guides="1" tooltips="1" connect="1" arrows="1" fold="1" page="1" pageScale="1" pageWidth="827" pageHeight="1169" math="0" shadow="0">
      <root>
        <mxCell id="0" />
        <mxCell id="1" parent="0" />
        <mxCell id="9_zCAby92JPYLFd_3AuZ-1" value="" style="shape=table;startSize=0;container=1;collapsible=0;childLayout=tableLayout;" vertex="1" parent="1">
          <mxGeometry x="410" y="420" width="669" height="370" as="geometry" />
        </mxCell>
        <mxCell id="9_zCAby92JPYLFd_3AuZ-2" value="" style="shape=partialRectangle;collapsible=0;dropTarget=0;pointerEvents=0;fillColor=none;top=0;left=0;bottom=0;right=0;points=[[0,0.5],[1,0.5]];portConstraint=eastwest;" vertex="1" parent="9_zCAby92JPYLFd_3AuZ-1">
          <mxGeometry width="669" height="53" as="geometry" />
        </mxCell>
        <mxCell id="9_zCAby92JPYLFd_3AuZ-3" value="Item number" style="shape=partialRectangle;html=1;whiteSpace=wrap;connectable=0;overflow=hidden;fillColor=none;top=0;left=0;bottom=0;right=0;" vertex="1" parent="9_zCAby92JPYLFd_3AuZ-2">
          <mxGeometry width="95" height="53" as="geometry" />
        </mxCell>
        <mxCell id="9_zCAby92JPYLFd_3AuZ-4" value="Part number" style="shape=partialRectangle;html=1;whiteSpace=wrap;connectable=0;overflow=hidden;fillColor=none;top=0;left=0;bottom=0;right=0;" vertex="1" parent="9_zCAby92JPYLFd_3AuZ-2">
          <mxGeometry x="95" width="96" height="53" as="geometry" />
        </mxCell>
        <mxCell id="9_zCAby92JPYLFd_3AuZ-5" value="Item name" style="shape=partialRectangle;html=1;whiteSpace=wrap;connectable=0;overflow=hidden;fillColor=none;top=0;left=0;bottom=0;right=0;" vertex="1" parent="9_zCAby92JPYLFd_3AuZ-2">
          <mxGeometry x="191" width="95" height="53" as="geometry" />
        </mxCell>
        <mxCell id="9_zCAby92JPYLFd_3AuZ-6" value="Description" style="shape=partialRectangle;html=1;whiteSpace=wrap;connectable=0;overflow=hidden;fillColor=none;top=0;left=0;bottom=0;right=0;" vertex="1" parent="9_zCAby92JPYLFd_3AuZ-2">
          <mxGeometry x="286" width="95" height="53" as="geometry" />
        </mxCell>
        <mxCell id="9_zCAby92JPYLFd_3AuZ-7" value="Manufacturer&amp;nbsp; name" style="shape=partialRectangle;html=1;whiteSpace=wrap;connectable=0;overflow=hidden;fillColor=none;top=0;left=0;bottom=0;right=0;" vertex="1" parent="9_zCAby92JPYLFd_3AuZ-2">
          <mxGeometry x="381" width="96" height="53" as="geometry" />
        </mxCell>
        <mxCell id="9_zCAby92JPYLFd_3AuZ-8" value="Quantity" style="shape=partialRectangle;html=1;whiteSpace=wrap;connectable=0;overflow=hidden;fillColor=none;top=0;left=0;bottom=0;right=0;" vertex="1" parent="9_zCAby92JPYLFd_3AuZ-2">
          <mxGeometry x="477" width="96" height="53" as="geometry" />
        </mxCell>
        <mxCell id="9_zCAby92JPYLFd_3AuZ-9" value="BOM note" style="shape=partialRectangle;html=1;whiteSpace=wrap;connectable=0;overflow=hidden;fillColor=none;top=0;left=0;bottom=0;right=0;" vertex="1" parent="9_zCAby92JPYLFd_3AuZ-2">
          <mxGeometry x="573" width="96" height="53" as="geometry" />
        </mxCell>
        <mxCell id="9_zCAby92JPYLFd_3AuZ-14" style="shape=partialRectangle;collapsible=0;dropTarget=0;pointerEvents=0;fillColor=none;top=0;left=0;bottom=0;right=0;points=[[0,0.5],[1,0.5]];portConstraint=eastwest;" vertex="1" parent="9_zCAby92JPYLFd_3AuZ-1">
          <mxGeometry y="53" width="669" height="53" as="geometry" />
        </mxCell>
        <mxCell id="9_zCAby92JPYLFd_3AuZ-15" value="1" style="shape=partialRectangle;html=1;whiteSpace=wrap;connectable=0;overflow=hidden;fillColor=none;top=0;left=0;bottom=0;right=0;" vertex="1" parent="9_zCAby92JPYLFd_3AuZ-14">
          <mxGeometry width="95" height="53" as="geometry" />
        </mxCell>
        <mxCell id="9_zCAby92JPYLFd_3AuZ-16" style="shape=partialRectangle;html=1;whiteSpace=wrap;connectable=0;overflow=hidden;fillColor=none;top=0;left=0;bottom=0;right=0;" vertex="1" parent="9_zCAby92JPYLFd_3AuZ-14">
          <mxGeometry x="95" width="96" height="53" as="geometry" />
        </mxCell>
        <mxCell id="9_zCAby92JPYLFd_3AuZ-17" style="shape=partialRectangle;html=1;whiteSpace=wrap;connectable=0;overflow=hidden;fillColor=none;top=0;left=0;bottom=0;right=0;" vertex="1" parent="9_zCAby92JPYLFd_3AuZ-14">
          <mxGeometry x="191" width="95" height="53" as="geometry" />
        </mxCell>
        <mxCell id="9_zCAby92JPYLFd_3AuZ-18" style="shape=partialRectangle;html=1;whiteSpace=wrap;connectable=0;overflow=hidden;fillColor=none;top=0;left=0;bottom=0;right=0;" vertex="1" parent="9_zCAby92JPYLFd_3AuZ-14">
          <mxGeometry x="286" width="95" height="53" as="geometry" />
        </mxCell>
        <mxCell id="9_zCAby92JPYLFd_3AuZ-19" value="" style="shape=partialRectangle;html=1;whiteSpace=wrap;connectable=0;overflow=hidden;fillColor=none;top=0;left=0;bottom=0;right=0;" vertex="1" parent="9_zCAby92JPYLFd_3AuZ-14">
          <mxGeometry x="381" width="96" height="53" as="geometry" />
        </mxCell>
        <mxCell id="9_zCAby92JPYLFd_3AuZ-20" style="shape=partialRectangle;html=1;whiteSpace=wrap;connectable=0;overflow=hidden;fillColor=none;top=0;left=0;bottom=0;right=0;" vertex="1" parent="9_zCAby92JPYLFd_3AuZ-14">
          <mxGeometry x="477" width="96" height="53" as="geometry" />
        </mxCell>
        <mxCell id="9_zCAby92JPYLFd_3AuZ-21" style="shape=partialRectangle;html=1;whiteSpace=wrap;connectable=0;overflow=hidden;fillColor=none;top=0;left=0;bottom=0;right=0;" vertex="1" parent="9_zCAby92JPYLFd_3AuZ-14">
          <mxGeometry x="573" width="96" height="53" as="geometry" />
        </mxCell>
        <mxCell id="9_zCAby92JPYLFd_3AuZ-26" style="shape=partialRectangle;collapsible=0;dropTarget=0;pointerEvents=0;fillColor=none;top=0;left=0;bottom=0;right=0;points=[[0,0.5],[1,0.5]];portConstraint=eastwest;" vertex="1" parent="9_zCAby92JPYLFd_3AuZ-1">
          <mxGeometry y="106" width="669" height="53" as="geometry" />
        </mxCell>
        <mxCell id="9_zCAby92JPYLFd_3AuZ-27" value="2" style="shape=partialRectangle;html=1;whiteSpace=wrap;connectable=0;overflow=hidden;fillColor=none;top=0;left=0;bottom=0;right=0;" vertex="1" parent="9_zCAby92JPYLFd_3AuZ-26">
          <mxGeometry width="95" height="53" as="geometry" />
        </mxCell>
        <mxCell id="9_zCAby92JPYLFd_3AuZ-28" style="shape=partialRectangle;html=1;whiteSpace=wrap;connectable=0;overflow=hidden;fillColor=none;top=0;left=0;bottom=0;right=0;" vertex="1" parent="9_zCAby92JPYLFd_3AuZ-26">
          <mxGeometry x="95" width="96" height="53" as="geometry" />
        </mxCell>
        <mxCell id="9_zCAby92JPYLFd_3AuZ-29" style="shape=partialRectangle;html=1;whiteSpace=wrap;connectable=0;overflow=hidden;fillColor=none;top=0;left=0;bottom=0;right=0;" vertex="1" parent="9_zCAby92JPYLFd_3AuZ-26">
          <mxGeometry x="191" width="95" height="53" as="geometry" />
        </mxCell>
        <mxCell id="9_zCAby92JPYLFd_3AuZ-30" style="shape=partialRectangle;html=1;whiteSpace=wrap;connectable=0;overflow=hidden;fillColor=none;top=0;left=0;bottom=0;right=0;" vertex="1" parent="9_zCAby92JPYLFd_3AuZ-26">
          <mxGeometry x="286" width="95" height="53" as="geometry" />
        </mxCell>
        <mxCell id="9_zCAby92JPYLFd_3AuZ-31" style="shape=partialRectangle;html=1;whiteSpace=wrap;connectable=0;overflow=hidden;fillColor=none;top=0;left=0;bottom=0;right=0;" vertex="1" parent="9_zCAby92JPYLFd_3AuZ-26">
          <mxGeometry x="381" width="96" height="53" as="geometry" />
        </mxCell>
        <mxCell id="9_zCAby92JPYLFd_3AuZ-32" style="shape=partialRectangle;html=1;whiteSpace=wrap;connectable=0;overflow=hidden;fillColor=none;top=0;left=0;bottom=0;right=0;" vertex="1" parent="9_zCAby92JPYLFd_3AuZ-26">
          <mxGeometry x="477" width="96" height="53" as="geometry" />
        </mxCell>
        <mxCell id="9_zCAby92JPYLFd_3AuZ-33" style="shape=partialRectangle;html=1;whiteSpace=wrap;connectable=0;overflow=hidden;fillColor=none;top=0;left=0;bottom=0;right=0;" vertex="1" parent="9_zCAby92JPYLFd_3AuZ-26">
          <mxGeometry x="573" width="96" height="53" as="geometry" />
        </mxCell>
        <mxCell id="9_zCAby92JPYLFd_3AuZ-38" value="" style="shape=partialRectangle;collapsible=0;dropTarget=0;pointerEvents=0;fillColor=none;top=0;left=0;bottom=0;right=0;points=[[0,0.5],[1,0.5]];portConstraint=eastwest;" vertex="1" parent="9_zCAby92JPYLFd_3AuZ-1">
          <mxGeometry y="159" width="669" height="52" as="geometry" />
        </mxCell>
        <mxCell id="9_zCAby92JPYLFd_3AuZ-39" value="3" style="shape=partialRectangle;html=1;whiteSpace=wrap;connectable=0;overflow=hidden;fillColor=none;top=0;left=0;bottom=0;right=0;" vertex="1" parent="9_zCAby92JPYLFd_3AuZ-38">
          <mxGeometry width="95" height="52" as="geometry" />
        </mxCell>
        <mxCell id="9_zCAby92JPYLFd_3AuZ-40" value="" style="shape=partialRectangle;html=1;whiteSpace=wrap;connectable=0;overflow=hidden;fillColor=none;top=0;left=0;bottom=0;right=0;" vertex="1" parent="9_zCAby92JPYLFd_3AuZ-38">
          <mxGeometry x="95" width="96" height="52" as="geometry" />
        </mxCell>
        <mxCell id="9_zCAby92JPYLFd_3AuZ-41" value="" style="shape=partialRectangle;html=1;whiteSpace=wrap;connectable=0;overflow=hidden;fillColor=none;top=0;left=0;bottom=0;right=0;" vertex="1" parent="9_zCAby92JPYLFd_3AuZ-38">
          <mxGeometry x="191" width="95" height="52" as="geometry" />
        </mxCell>
        <mxCell id="9_zCAby92JPYLFd_3AuZ-42" value="" style="shape=partialRectangle;html=1;whiteSpace=wrap;connectable=0;overflow=hidden;fillColor=none;top=0;left=0;bottom=0;right=0;" vertex="1" parent="9_zCAby92JPYLFd_3AuZ-38">
          <mxGeometry x="286" width="95" height="52" as="geometry" />
        </mxCell>
        <mxCell id="9_zCAby92JPYLFd_3AuZ-43" value="" style="shape=partialRectangle;html=1;whiteSpace=wrap;connectable=0;overflow=hidden;fillColor=none;top=0;left=0;bottom=0;right=0;" vertex="1" parent="9_zCAby92JPYLFd_3AuZ-38">
          <mxGeometry x="381" width="96" height="52" as="geometry" />
        </mxCell>
        <mxCell id="9_zCAby92JPYLFd_3AuZ-44" value="" style="shape=partialRectangle;html=1;whiteSpace=wrap;connectable=0;overflow=hidden;fillColor=none;top=0;left=0;bottom=0;right=0;" vertex="1" parent="9_zCAby92JPYLFd_3AuZ-38">
          <mxGeometry x="477" width="96" height="52" as="geometry" />
        </mxCell>
        <mxCell id="9_zCAby92JPYLFd_3AuZ-45" value="" style="shape=partialRectangle;html=1;whiteSpace=wrap;connectable=0;overflow=hidden;fillColor=none;top=0;left=0;bottom=0;right=0;" vertex="1" parent="9_zCAby92JPYLFd_3AuZ-38">
          <mxGeometry x="573" width="96" height="52" as="geometry" />
        </mxCell>
        <mxCell id="9_zCAby92JPYLFd_3AuZ-50" value="" style="shape=partialRectangle;collapsible=0;dropTarget=0;pointerEvents=0;fillColor=none;top=0;left=0;bottom=0;right=0;points=[[0,0.5],[1,0.5]];portConstraint=eastwest;" vertex="1" parent="9_zCAby92JPYLFd_3AuZ-1">
          <mxGeometry y="211" width="669" height="53" as="geometry" />
        </mxCell>
        <mxCell id="9_zCAby92JPYLFd_3AuZ-51" value="4" style="shape=partialRectangle;html=1;whiteSpace=wrap;connectable=0;overflow=hidden;fillColor=none;top=0;left=0;bottom=0;right=0;" vertex="1" parent="9_zCAby92JPYLFd_3AuZ-50">
          <mxGeometry width="95" height="53" as="geometry" />
        </mxCell>
        <mxCell id="9_zCAby92JPYLFd_3AuZ-52" value="" style="shape=partialRectangle;html=1;whiteSpace=wrap;connectable=0;overflow=hidden;fillColor=none;top=0;left=0;bottom=0;right=0;" vertex="1" parent="9_zCAby92JPYLFd_3AuZ-50">
          <mxGeometry x="95" width="96" height="53" as="geometry" />
        </mxCell>
        <mxCell id="9_zCAby92JPYLFd_3AuZ-53" value="" style="shape=partialRectangle;html=1;whiteSpace=wrap;connectable=0;overflow=hidden;fillColor=none;top=0;left=0;bottom=0;right=0;" vertex="1" parent="9_zCAby92JPYLFd_3AuZ-50">
          <mxGeometry x="191" width="95" height="53" as="geometry" />
        </mxCell>
        <mxCell id="9_zCAby92JPYLFd_3AuZ-54" value="" style="shape=partialRectangle;html=1;whiteSpace=wrap;connectable=0;overflow=hidden;fillColor=none;top=0;left=0;bottom=0;right=0;" vertex="1" parent="9_zCAby92JPYLFd_3AuZ-50">
          <mxGeometry x="286" width="95" height="53" as="geometry" />
        </mxCell>
        <mxCell id="9_zCAby92JPYLFd_3AuZ-55" value="" style="shape=partialRectangle;html=1;whiteSpace=wrap;connectable=0;overflow=hidden;fillColor=none;top=0;left=0;bottom=0;right=0;" vertex="1" parent="9_zCAby92JPYLFd_3AuZ-50">
          <mxGeometry x="381" width="96" height="53" as="geometry" />
        </mxCell>
        <mxCell id="9_zCAby92JPYLFd_3AuZ-56" value="" style="shape=partialRectangle;html=1;whiteSpace=wrap;connectable=0;overflow=hidden;fillColor=none;top=0;left=0;bottom=0;right=0;" vertex="1" parent="9_zCAby92JPYLFd_3AuZ-50">
          <mxGeometry x="477" width="96" height="53" as="geometry" />
        </mxCell>
        <mxCell id="9_zCAby92JPYLFd_3AuZ-57" value="" style="shape=partialRectangle;html=1;whiteSpace=wrap;connectable=0;overflow=hidden;fillColor=none;top=0;left=0;bottom=0;right=0;" vertex="1" parent="9_zCAby92JPYLFd_3AuZ-50">
          <mxGeometry x="573" width="96" height="53" as="geometry" />
        </mxCell>
        <mxCell id="9_zCAby92JPYLFd_3AuZ-62" value="" style="shape=partialRectangle;collapsible=0;dropTarget=0;pointerEvents=0;fillColor=none;top=0;left=0;bottom=0;right=0;points=[[0,0.5],[1,0.5]];portConstraint=eastwest;" vertex="1" parent="9_zCAby92JPYLFd_3AuZ-1">
          <mxGeometry y="264" width="669" height="53" as="geometry" />
        </mxCell>
        <mxCell id="9_zCAby92JPYLFd_3AuZ-63" value="5" style="shape=partialRectangle;html=1;whiteSpace=wrap;connectable=0;overflow=hidden;fillColor=none;top=0;left=0;bottom=0;right=0;" vertex="1" parent="9_zCAby92JPYLFd_3AuZ-62">
          <mxGeometry width="95" height="53" as="geometry" />
        </mxCell>
        <mxCell id="9_zCAby92JPYLFd_3AuZ-64" value="" style="shape=partialRectangle;html=1;whiteSpace=wrap;connectable=0;overflow=hidden;fillColor=none;top=0;left=0;bottom=0;right=0;" vertex="1" parent="9_zCAby92JPYLFd_3AuZ-62">
          <mxGeometry x="95" width="96" height="53" as="geometry" />
        </mxCell>
        <mxCell id="9_zCAby92JPYLFd_3AuZ-65" value="" style="shape=partialRectangle;html=1;whiteSpace=wrap;connectable=0;overflow=hidden;fillColor=none;top=0;left=0;bottom=0;right=0;" vertex="1" parent="9_zCAby92JPYLFd_3AuZ-62">
          <mxGeometry x="191" width="95" height="53" as="geometry" />
        </mxCell>
        <mxCell id="9_zCAby92JPYLFd_3AuZ-66" value="" style="shape=partialRectangle;html=1;whiteSpace=wrap;connectable=0;overflow=hidden;fillColor=none;top=0;left=0;bottom=0;right=0;" vertex="1" parent="9_zCAby92JPYLFd_3AuZ-62">
          <mxGeometry x="286" width="95" height="53" as="geometry" />
        </mxCell>
        <mxCell id="9_zCAby92JPYLFd_3AuZ-67" value="" style="shape=partialRectangle;html=1;whiteSpace=wrap;connectable=0;overflow=hidden;fillColor=none;top=0;left=0;bottom=0;right=0;" vertex="1" parent="9_zCAby92JPYLFd_3AuZ-62">
          <mxGeometry x="381" width="96" height="53" as="geometry" />
        </mxCell>
        <mxCell id="9_zCAby92JPYLFd_3AuZ-68" value="" style="shape=partialRectangle;html=1;whiteSpace=wrap;connectable=0;overflow=hidden;fillColor=none;top=0;left=0;bottom=0;right=0;" vertex="1" parent="9_zCAby92JPYLFd_3AuZ-62">
          <mxGeometry x="477" width="96" height="53" as="geometry" />
        </mxCell>
        <mxCell id="9_zCAby92JPYLFd_3AuZ-69" value="" style="shape=partialRectangle;html=1;whiteSpace=wrap;connectable=0;overflow=hidden;fillColor=none;top=0;left=0;bottom=0;right=0;" vertex="1" parent="9_zCAby92JPYLFd_3AuZ-62">
          <mxGeometry x="573" width="96" height="53" as="geometry" />
        </mxCell>
        <mxCell id="9_zCAby92JPYLFd_3AuZ-74" value="" style="shape=partialRectangle;collapsible=0;dropTarget=0;pointerEvents=0;fillColor=none;top=0;left=0;bottom=0;right=0;points=[[0,0.5],[1,0.5]];portConstraint=eastwest;" vertex="1" parent="9_zCAby92JPYLFd_3AuZ-1">
          <mxGeometry y="317" width="669" height="53" as="geometry" />
        </mxCell>
        <mxCell id="9_zCAby92JPYLFd_3AuZ-75" value="6" style="shape=partialRectangle;html=1;whiteSpace=wrap;connectable=0;overflow=hidden;fillColor=none;top=0;left=0;bottom=0;right=0;" vertex="1" parent="9_zCAby92JPYLFd_3AuZ-74">
          <mxGeometry width="95" height="53" as="geometry" />
        </mxCell>
        <mxCell id="9_zCAby92JPYLFd_3AuZ-76" value="" style="shape=partialRectangle;html=1;whiteSpace=wrap;connectable=0;overflow=hidden;fillColor=none;top=0;left=0;bottom=0;right=0;" vertex="1" parent="9_zCAby92JPYLFd_3AuZ-74">
          <mxGeometry x="95" width="96" height="53" as="geometry" />
        </mxCell>
        <mxCell id="9_zCAby92JPYLFd_3AuZ-77" value="" style="shape=partialRectangle;html=1;whiteSpace=wrap;connectable=0;overflow=hidden;fillColor=none;top=0;left=0;bottom=0;right=0;" vertex="1" parent="9_zCAby92JPYLFd_3AuZ-74">
          <mxGeometry x="191" width="95" height="53" as="geometry" />
        </mxCell>
        <mxCell id="9_zCAby92JPYLFd_3AuZ-78" value="" style="shape=partialRectangle;html=1;whiteSpace=wrap;connectable=0;overflow=hidden;fillColor=none;top=0;left=0;bottom=0;right=0;" vertex="1" parent="9_zCAby92JPYLFd_3AuZ-74">
          <mxGeometry x="286" width="95" height="53" as="geometry" />
        </mxCell>
        <mxCell id="9_zCAby92JPYLFd_3AuZ-79" value="" style="shape=partialRectangle;html=1;whiteSpace=wrap;connectable=0;overflow=hidden;fillColor=none;top=0;left=0;bottom=0;right=0;" vertex="1" parent="9_zCAby92JPYLFd_3AuZ-74">
          <mxGeometry x="381" width="96" height="53" as="geometry" />
        </mxCell>
        <mxCell id="9_zCAby92JPYLFd_3AuZ-80" value="" style="shape=partialRectangle;html=1;whiteSpace=wrap;connectable=0;overflow=hidden;fillColor=none;top=0;left=0;bottom=0;right=0;" vertex="1" parent="9_zCAby92JPYLFd_3AuZ-74">
          <mxGeometry x="477" width="96" height="53" as="geometry" />
        </mxCell>
        <mxCell id="9_zCAby92JPYLFd_3AuZ-81" value="" style="shape=partialRectangle;html=1;whiteSpace=wrap;connectable=0;overflow=hidden;fillColor=none;top=0;left=0;bottom=0;right=0;" vertex="1" parent="9_zCAby92JPYLFd_3AuZ-74">
          <mxGeometry x="573" width="96" height="53" as="geometry" />
        </mxCell>
      </root>
    </mxGraphModel>
  </diagram>
</mxfile>
